PathFileType	4	(X/Y/Z)	Apose_0-50.trc
DataRate	CameraRate	NumFrames	NumMarkers	Units	OrigDataRate	OrigDataStartFrame	OrigNumFrames
30	30	6	22	m	30	30	50
Frame#	Time	Hip			RHip			RKnee			RAnkle			RBigToe			RSmallToe			RHeel			LHip			LKnee			LAnkle			LBigToe			LSmallToe			LHeel			Neck			Head			Nose			RShoulder			RElbow			RWrist			LShoulder			LElbow			LWrist		
		X1	Y1	Z1	X2	Y2	Z2	X3	Y3	Z3	X4	Y4	Z4	X5	Y5	Z5	X6	Y6	Z6	X7	Y7	Z7	X8	Y8	Z8	X9	Y9	Z9	X10	Y10	Z10	X11	Y11	Z11	X12	Y12	Z12	X13	Y13	Z13	X14	Y14	Z14	X15	Y15	Z15	X16	Y16	Z16	X17	Y17	Z17	X18	Y18	Z18	X19	Y19	Z19	X20	Y20	Z20	X21	Y21	Z21	X22	Y22	Z22
31	1.0333333333333334	0.044631483687055155	0.9203837939040993	0.35777689376628635	0.03643191607473906	0.8944841099702435	0.47305345329640647	0.004157603971327653	0.5068505533137976	0.4979234567113689	-0.014385439275654525	0.10366211329743966	0.5180625736080356	0.20898854970215408	0.04524700898494182	0.5634506192460347	0.15089181657616613	0.03480072436509803	0.6155501120460514	-0.05778497837925125	0.031361169276155405	0.5040379748341464	0.03705330904824045	0.8922435842987677	0.24344875420203785	0.01461984003339778	0.5049534839323253	0.2242932627663881	0.0018100334039333266	0.11832217516108914	0.21026910539791938	0.20848109434277604	0.04128443551956186	0.1889753627030584	0.1611107566776638	0.039086676368415244	0.1296290244402473	-0.03565368179016283	0.038363865214627355	0.21975593911879698	0.06297296716340732	1.5643423877630998	0.34634297000234204	0.28717095528655023	1.7978754281209401	0.3698946144279831	0.24208618424647835	1.5922190772952582	0.3207475459229513	0.030471532029815847	1.493582211077645	0.5391713509089738	0.07465892134990199	1.2291372750727831	0.7196763520958588	0.14881399728194752	1.0304904596391524	0.8831631568634934	0.01320085815696283	1.4734960253853453	0.1495556480960776	0.025504368566924382	1.225453647251874	0.00019287744283503542	0.08985950571526687	1.0147023412709353	-0.14707536105791816
32	1.0666666666666667	0.043871312749807025	0.9182965384703244	0.3550815028053875	0.03802040126889417	0.8929176176304361	0.46926152897613177	0.003675721433763277	0.5053966110907553	0.49762708322227245	-0.01456582796581576	0.10208077438418482	0.5172201952623879	0.20815145957613174	0.041260382874350764	0.5652774746983943	0.15209191639624042	0.03358005752245151	0.616883034988871	-0.054997777601964934	0.03036255590945649	0.5037664046785547	0.03884485413785259	0.8901740460842875	0.24150336456694815	0.01890844478175804	0.5038569420155413	0.2228054352024335	0.0031675872071250744	0.11938680357249085	0.21010807308869292	0.20913525704017713	0.03994120416963127	0.1908664265872018	0.1647080844716682	0.038218151177148704	0.13131548470646534	-0.03606302915196083	0.03927206239103804	0.221466593720133	0.06470879889602806	1.5645652907512677	0.3458328163090175	0.30516411567527757	1.7698529810383006	0.26861294993274903	0.23816071480860856	1.5939328794520597	0.3223517900966132	0.02981839330326596	1.4920379056670996	0.5387691187203555	0.07703761925317684	1.2275797254286767	0.7213013185423667	0.13017445087006435	1.0380049334782142	0.8896702039249934	0.011594128421258645	1.4751706244219902	0.15043995277026653	0.022651919374460164	1.2254244324748638	-0.0007668626648891225	0.08521254774415675	1.0179621898014686	-0.14717525274314244
33	1.1	0.04134924393933687	0.9201131734150013	0.3548827747431875	0.03722990624711734	0.8908810651655539	0.47009163121518505	0.004595891919988979	0.5054178051565981	0.4972585882269068	-0.01385682347501356	0.10150079520853762	0.5165949078844596	0.20902343397992162	0.042258448941956746	0.5634950933604218	0.15250505682225	0.033379558824978575	0.6162318180668508	-0.05728954018101586	0.031332221071923246	0.5035558662086284	0.039295715070128204	0.8875848777333581	0.24282846701453942	0.01962806723405714	0.503672597942621	0.22047046770558887	-0.0009074304482424262	0.12022816763832495	0.21177328719307636	0.2086563033359509	0.03860630141342801	0.18968913967142625	0.16467042801154763	0.039754348628358686	0.13270559083243896	-0.03525270333022724	0.03680567325599514	0.2220816790715394	0.060648626026955546	1.5688055484506163	0.3456786274636385	0.30750874396503514	1.7689764250748308	0.265735650202338	0.23792619180788002	1.5937578491292468	0.32144025255362213	0.03073905946696305	1.4938568924465658	0.5382114852541459	0.059048508974626684	1.2370705658351224	0.7124897964432609	0.12908998709399563	1.040634186036623	0.8893637979996762	0.015545910027090104	1.4754318819395373	0.14644340429454092	0.021019109556239722	1.2252565274312472	7.547714104983254e-05	0.08579583320052077	1.0187899102203173	-0.1455911849589386
34	1.1333333333333333	0.042557907010738895	0.9186465867281978	0.35484877872504894	0.03754617052949844	0.8890989857585404	0.46865502560135747	0.0033535889392174137	0.5052489493456679	0.4992057010341509	-0.012750370131613642	0.09863086469145999	0.5176603567038404	0.20790833342092477	0.04061679896477215	0.5638014496416306	0.15113904553304283	0.03269992821787035	0.6142376397698166	-0.0582361366962833	0.0310875104800451	0.5031962478424061	0.03829205303191587	0.8858085410112287	0.2426069330583901	0.0235361044811453	0.4917647823027195	0.2148446460832315	-0.0027043306024242693	0.11998964698820927	0.21209040125818887	0.2073430195563501	0.03768898218021786	0.1893894052158478	0.1633526812594053	0.03960918780836965	0.13326299127091126	-0.037275776470075996	0.037218941067929355	0.2200646441599526	0.0611290484285046	1.5698687130220534	0.34695210111627883	0.2286512357019199	1.7802219111970439	0.32565045480266713	0.2373895456296148	1.5942526083346895	0.3206525032326698	0.03290572475072692	1.4931637085774316	0.5374935656921477	0.08169510841846006	1.226673468085613	0.7210657695823012	0.13052526816155705	1.0424998962249967	0.8890467967538487	0.01426647094296442	1.475406050623803	0.14716417344093596	0.023435379192339276	1.2250492017403518	0.0005259793911765707	0.08532039394648373	1.0183673541676943	-0.14467138316984482
35	1.1666666666666667	0.04361177936815664	0.917322455141004	0.35630514267651897	0.0381578746500218	0.8896739344433668	0.4693232782107336	0.0035160203605383686	0.5069137404952576	0.499590186415321	-0.015303315146622374	0.09634348328677474	0.5170463144325435	0.21093322398708955	0.04031449842565574	0.5624719715818821	0.15017165968037147	0.03131466768083375	0.6151046588662137	-0.05631021771674825	0.02870652106265205	0.502755445393493	0.039240472500313164	0.8875812575789173	0.24198705205252247	0.024193259960360623	0.4906724858439253	0.2143473700708469	-0.0005060099576894316	0.11965434807064078	0.21074624946987916	0.20772340356699007	0.036495149912602595	0.19006571001245326	0.16236061503646762	0.03658326375385946	0.13356957595779267	-0.03476868821543192	0.038896022256724644	0.22001613525334182	0.06263011241627035	1.5685503835132226	0.3455152389293815	0.2980702389276507	1.7710227747996372	0.27096143827859115	0.32218569083256443	1.6315473795856765	0.33913576531800543	0.03115806888152176	1.4916552202918527	0.5397014683678862	0.06109295528623412	1.2372010933403337	0.7142860413057477	0.13184561687282254	1.0413567048780714	0.8899823533633621	0.010793615431313498	1.4742981606422136	0.15048089170530457	0.023537504641534673	1.224949755454424	0.0011833219411141675	0.0858165272523409	1.0181678652072377	-0.14489999696037031
36	1.2	0.04405065598046002	0.9187625313258102	0.35661561999060337	0.037754788358897715	0.8933895793382814	0.4697113094975213	0.003158429475858554	0.5055506925172394	0.49915172471568525	-0.012780967909628472	0.11252699948124104	0.5110910522017514	0.21042200035145103	0.04320717648697364	0.5639497321798989	0.1502584703572036	0.033001975081257226	0.6175453332163817	-0.056073243037819305	0.0304803214063621	0.5044799268034259	0.037213034762605846	0.8902285093257923	0.24055141758552348	0.03687368815343775	0.5066527104492207	0.21738512495062645	0.001454650736022164	0.11982209687161048	0.21084945832624544	0.20921877936864156	0.03772493655175613	0.1934132758063488	0.16326316530167317	0.03634839845153471	0.13261813994254856	-0.03355531292332151	0.038883966243366555	0.2192418690355877	0.06620952377399365	1.5648993667589228	0.3463433287982277	0.27545853167882306	1.8024583038758824	0.3599919899130282	0.23500712822503494	1.597866095041792	0.3168323164215434	0.03315286054600497	1.4913550043779276	0.5396148790041383	0.07926470022105789	1.2257676415506142	0.7229655190322275	0.15341609534149514	1.0261175756177143	0.8878914640695674	0.010732307265323673	1.4760142219479813	0.15289065424790504	0.023953706186867766	1.2260228713098256	0.0011059048291526326	0.08535065654682567	1.0155322929993469	-0.14411940629244854
